<?xml version="1.0" standalone="no"?>
<!DOCTYPE svg PUBLIC "-//W3C//DTD SVG 20010904//EN"
 "http://www.w3.org/TR/2001/REC-SVG-20010904/DTD/svg10.dtd">
<svg version="1.0" xmlns="http://www.w3.org/2000/svg"
 width="286.000000pt" height="298.000000pt" viewBox="0 0 286.000000 298.000000"
 preserveAspectRatio="xMidYMid meet">

<g transform="translate(0.000000,298.000000) scale(0.100000,-0.100000)"
fill="#000000" stroke="none">
<path d="M1138 2518 c-24 -27 -25 -29 -8 -38 10 -6 21 -18 25 -29 5 -17 8 -16
34 10 l29 29 -27 28 -26 29 -27 -29z"/>
<path d="M857 2500 c-15 -12 -32 -18 -38 -14 -6 4 -27 10 -46 15 -30 6 -39 4
-59 -17 -14 -13 -27 -36 -30 -52 -4 -21 -15 -32 -40 -41 -53 -19 -53 -44 0
-150 36 -71 55 -97 87 -118 46 -31 98 -42 152 -32 36 6 39 5 58 -33 23 -46 49
-155 49 -211 0 -47 -15 -41 -24 10 -9 55 -54 114 -111 146 -46 25 -57 27 -135
24 -68 -2 -98 -9 -147 -32 -40 -18 -63 -34 -63 -45 0 -23 51 -99 96 -142 93
-88 198 -102 336 -44 30 14 48 -41 48 -151 1 -250 33 -363 133 -461 178 -175
500 -171 675 9 18 19 50 68 70 108 l37 75 3 363 c3 401 3 404 -61 443 -41 25
-83 25 -124 0 -61 -37 -63 -46 -63 -388 0 -328 -5 -368 -50 -432 -54 -75 -178
-94 -264 -40 -80 51 -90 85 -94 328 -4 193 -5 203 -25 217 -46 32 -112 2 -149
-67 l-23 -43 -3 31 c-2 17 8 59 21 95 l24 64 79 6 c95 7 156 32 218 90 52 47
101 140 111 209 22 161 21 162 -117 149 -108 -10 -214 -61 -267 -129 -55 -69
-73 -131 -69 -232 4 -102 -12 -113 -37 -26 -9 35 -26 80 -37 101 l-19 38 35
40 c64 75 60 162 -13 279 -52 84 -78 96 -124 60z m60 -32 c6 -7 24 -39 42 -70
49 -89 41 -167 -23 -227 -27 -25 -103 -39 -150 -27 -27 7 -88 82 -125 153
l-21 42 22 15 c28 20 59 20 105 1 49 -21 51 -20 63 25 10 38 53 100 70 100 4
0 12 -6 17 -12z m-132 -8 c23 -9 26 -14 20 -38 -9 -37 -15 -41 -53 -30 -28 7
-32 12 -26 31 6 21 23 47 30 47 1 0 15 -5 29 -10z m680 -177 c-13 -94 -35
-152 -78 -205 -54 -66 -107 -96 -186 -104 -63 -7 -76 1 -45 27 8 7 22 26 31
43 9 17 43 59 76 93 33 35 57 66 54 70 -11 11 -86 -48 -152 -119 -34 -37 -66
-68 -69 -68 -13 0 -5 72 14 124 41 108 165 184 303 185 l58 1 -6 -47z m-642
-309 c18 -9 40 -24 51 -33 20 -18 50 -70 43 -77 -2 -2 -25 5 -50 16 -51 23
-159 40 -142 23 6 -6 33 -18 61 -28 28 -10 66 -30 85 -46 l34 -28 -30 -11
c-57 -22 -125 -16 -183 15 -56 31 -128 115 -119 139 15 40 190 60 250 30z"/>
<path d="M883 2335 c-3 -9 -3 -18 0 -21 6 -7 47 18 47 28 0 15 -41 8 -47 -7z"/>
<path d="M750 2265 c-6 -8 -9 -18 -6 -24 8 -12 56 10 56 27 0 17 -35 15 -50
-3z"/>
<path d="M877 2250 c-10 -12 -23 -17 -33 -13 -12 4 -15 2 -12 -8 11 -33 78 -9
78 28 0 19 -13 16 -33 -7z"/>
<path d="M1442 878 c-7 -7 -12 -22 -12 -35 0 -27 42 -42 65 -23 28 23 11 70
-25 70 -9 0 -21 -5 -28 -12z"/>
<path d="M2090 695 l0 -175 30 0 30 0 0 70 c0 103 29 147 78 121 23 -12 32
-51 32 -132 0 -59 0 -59 30 -59 l30 0 0 101 c0 99 -1 101 -30 131 -31 31 -54
33 -117 13 -22 -7 -23 -5 -23 49 0 56 0 56 -30 56 l-30 0 0 -175z"/>
<path d="M510 725 c0 -140 11 -168 77 -197 52 -23 97 -19 137 13 47 37 56 68
56 189 l0 110 -35 0 -35 0 0 -108 c0 -126 -11 -152 -64 -152 -55 0 -66 22 -66
132 0 117 -4 128 -41 128 l-29 0 0 -115z"/>
<path d="M955 770 c-11 -4 -39 -6 -63 -3 l-43 6 3 -124 3 -124 30 0 30 0 5 83
c4 68 9 86 24 98 23 16 35 17 56 4 11 -7 16 -34 20 -97 l5 -88 33 -3 32 -3 0
86 c0 98 -16 146 -56 164 -29 13 -50 13 -79 1z"/>
<path d="M1210 773 c-8 -3 -25 -10 -37 -14 -20 -7 -22 -11 -11 -34 12 -26 23
-31 33 -15 9 14 68 13 83 -2 24 -24 12 -35 -44 -41 -30 -3 -62 -11 -69 -17
-20 -17 -28 -66 -15 -90 15 -29 75 -53 103 -43 12 4 42 8 67 8 l45 0 -4 95
c-2 52 -8 103 -13 113 -18 34 -95 56 -138 40z m85 -168 c0 -10 -12 -26 -27
-34 -22 -13 -29 -13 -42 -2 -19 16 -21 47 -3 55 6 3 26 4 42 3 22 -2 30 -7 30
-22z"/>
<path d="M1620 773 c-33 -12 -60 -47 -60 -78 0 -38 22 -60 70 -70 57 -12 74
-24 59 -42 -9 -11 -23 -13 -49 -9 -76 12 -75 12 -78 -15 -3 -24 1 -28 45 -38
83 -20 153 14 153 73 0 45 -10 55 -76 75 -79 23 -81 46 -4 45 53 -1 70 7 70
33 0 23 -89 41 -130 26z"/>
<path d="M1843 765 c-36 -16 -38 -18 -23 -46 9 -15 15 -17 30 -9 26 14 73 13
88 -2 24 -24 12 -36 -43 -40 -34 -3 -62 -12 -75 -23 -22 -19 -26 -64 -10 -95
14 -26 71 -43 102 -31 14 5 44 7 67 4 l41 -6 -1 89 c-1 116 -7 135 -49 156
-42 21 -83 22 -127 3z m107 -160 c0 -18 -7 -28 -25 -35 -33 -13 -55 -3 -55 24
0 30 7 36 47 36 29 0 33 -3 33 -25z"/>
<path d="M1434 757 c-2 -7 -3 -62 -2 -123 l3 -109 33 -3 32 -3 0 125 0 126
-30 0 c-17 0 -33 -6 -36 -13z"/>
</g>
</svg>
